<?xml version="1.0" standalone="no"?>
<!DOCTYPE svg PUBLIC "-//W3C//DTD SVG 20010904//EN"
 "http://www.w3.org/TR/2001/REC-SVG-20010904/DTD/svg10.dtd">
<svg version="1.0" xmlns="http://www.w3.org/2000/svg"
 width="1201.000000pt" height="629.000000pt" viewBox="0 0 1201.000000 629.000000"
 preserveAspectRatio="xMidYMid meet">
<metadata>
Created by potrace 1.16, written by Peter Selinger 2001-2019
</metadata>
<g transform="translate(0.000000,629.000000) scale(0.100000,-0.100000)"
fill="#000000" stroke="none">
<path d="M2960 4140 c0 -1083 3 -1560 11 -1560 5 0 110 27 232 61 407 111 999
253 1492 356 l90 19 3 1342 2 1342 -915 0 -915 0 0 -1560z"/>
<path d="M5907 5693 c-4 -3 -7 -559 -7 -1235 0 -1183 1 -1228 18 -1228 10 0
142 20 293 44 326 53 893 134 1254 179 l260 33 3 1107 2 1107 -908 0 c-500 0
-912 -3 -915 -7z"/>
<path d="M8680 3899 c-79 -36 -110 -79 -56 -79 38 0 112 -55 141 -105 l28 -46
-26 -27 c-50 -52 -60 -101 -52 -264 8 -184 22 -235 83 -300 l46 -50 -29 -56
c-27 -51 -66 -89 -131 -128 -17 -11 -14 -14 31 -35 36 -16 70 -23 122 -23 100
-1 143 29 198 140 l40 81 105 6 c236 13 582 125 692 225 86 77 105 182 53 288
-35 71 -83 106 -199 143 -193 62 -377 86 -577 77 l-137 -7 -23 38 c-37 59 -79
103 -120 124 -51 25 -131 25 -189 -2z"/>
<path d="M7665 2780 c-33 -10 -217 -66 -410 -125 -334 -102 -1037 -326 -1250
-398 l-100 -34 0 -829 0 -829 913 -3 912 -2 0 1120 c0 616 -1 1120 -2 1119 -2
0 -30 -8 -63 -19z"/>
<path d="M4715 1813 c-690 -251 -1381 -529 -1680 -675 l-70 -34 -3 -272 -2
-272 915 0 915 0 0 640 c0 352 -1 640 -2 639 -2 0 -34 -12 -73 -26z"/>
</g>
</svg>
